<?xml version="1.0" standalone="no"?>
<!DOCTYPE svg PUBLIC "-//W3C//DTD SVG 20010904//EN"
 "http://www.w3.org/TR/2001/REC-SVG-20010904/DTD/svg10.dtd">
<svg version="1.0" xmlns="http://www.w3.org/2000/svg"
 width="512.000000pt" height="512.000000pt" viewBox="0 0 512.000000 512.000000"
 preserveAspectRatio="xMidYMid meet">
<metadata>
Created by potrace 1.14, written by Peter Selinger 2001-2017
</metadata>
<g transform="translate(0.000000,512.000000) scale(0.100000,-0.100000)"
fill="#000000" stroke="none">
<path d="M1710 4935 c0 -34 -1 -35 -40 -35 l-40 0 0 -40 c0 -39 -1 -40 -35
-40 -33 0 -35 -2 -35 -35 0 -34 -1 -35 -40 -35 l-40 0 0 -40 c0 -39 -1 -40
-35 -40 l-35 0 0 -70 0 -70 -35 0 -35 0 0 -75 0 -75 -40 0 -40 0 0 -75 0 -75
-35 0 -35 0 0 -75 0 -75 -40 0 -40 0 0 -75 0 -75 -35 0 c-33 0 -35 -2 -35 -35
l0 -35 -75 0 -75 0 0 35 0 35 -220 0 -220 0 0 -35 0 -35 -150 0 -150 0 0 -40
0 -40 -75 0 -75 0 0 -220 0 -220 35 0 c34 0 35 -1 35 -40 l0 -40 40 0 c39 0
40 -1 40 -35 l0 -35 75 0 75 0 0 -35 c0 -33 2 -35 35 -35 34 0 35 -1 35 -40
l0 -40 75 0 75 0 0 -35 0 -35 75 0 75 0 0 -40 0 -40 75 0 75 0 0 -35 c0 -34
-1 -35 -40 -35 l-40 0 0 -370 0 -370 -35 0 -35 0 0 -520 0 -520 35 0 c34 0 35
-1 35 -40 l0 -40 -75 0 -75 0 0 -35 c0 -33 -2 -35 -35 -35 -33 0 -35 -2 -35
-35 0 -33 -2 -35 -35 -35 -34 0 -35 -1 -35 -40 l0 -40 -40 0 c-39 0 -40 -1
-40 -35 0 -33 -2 -35 -35 -35 -34 0 -35 -1 -35 -40 l0 -40 -40 0 c-39 0 -40
-1 -40 -35 0 -33 -2 -35 -35 -35 -33 0 -35 -2 -35 -35 0 -34 -1 -35 -40 -35
l-40 0 0 -40 c0 -39 -1 -40 -35 -40 l-35 0 0 -185 0 -185 1000 0 1000 0 0 35
c0 33 -2 35 -35 35 l-35 0 0 115 0 115 -35 0 c-33 0 -35 2 -35 35 0 34 -1 35
-40 35 l-40 0 0 75 0 75 -35 0 c-33 0 -35 2 -35 35 l0 35 295 0 295 0 0 40 0
40 295 0 295 0 0 35 0 35 115 0 115 0 0 40 0 40 110 0 110 0 0 35 c0 33 2 35
35 35 33 0 35 2 35 35 l0 35 75 0 75 0 0 40 0 40 40 0 c39 0 40 1 40 35 0 33
2 35 35 35 34 0 35 1 35 40 0 39 1 40 35 40 33 0 35 2 35 35 0 34 1 35 40 35
l40 0 0 40 c0 39 1 40 35 40 33 0 35 2 35 35 0 34 1 35 40 35 l40 0 0 75 0 75
35 0 c33 0 35 2 35 35 0 34 1 35 40 35 l40 0 0 115 0 115 330 0 330 0 0 35 0
35 115 0 115 0 0 35 c0 33 2 35 35 35 l35 0 0 225 0 225 -35 0 c-33 0 -35 2
-35 35 l0 35 -75 0 -75 0 0 40 0 40 -115 0 -115 0 0 35 c0 34 1 35 40 35 l40
0 0 75 0 75 35 0 35 0 0 75 0 75 40 0 40 0 0 75 0 75 35 0 35 0 0 70 0 70 40
0 40 0 0 75 0 75 35 0 35 0 0 300 0 300 -35 0 c-33 0 -35 2 -35 35 l0 35 -375
0 -375 0 0 40 0 40 -110 0 -110 0 0 35 0 35 -110 0 -110 0 0 35 0 35 -110 0
-110 0 0 40 0 40 -150 0 -150 0 0 35 0 35 -110 0 -110 0 0 40 0 40 -115 0
-115 0 0 35 0 35 -110 0 -110 0 0 35 0 35 -185 0 -185 0 0 40 0 40 -75 0 -75
0 0 35 c0 33 -2 35 -35 35 -34 0 -35 1 -35 40 l0 40 -75 0 -75 0 0 35 0 35
-110 0 -110 0 0 -35z m440 -2670 l0 -35 75 0 75 0 0 -40 c0 -39 1 -40 35 -40
33 0 35 -2 35 -35 0 -34 1 -35 40 -35 l40 0 0 -40 c0 -39 1 -40 35 -40 33 0
35 -2 35 -35 0 -34 1 -35 40 -35 39 0 40 -1 40 -35 0 -33 2 -35 35 -35 34 0
35 -1 35 -40 l0 -40 40 0 c39 0 40 -1 40 -35 l0 -35 -190 0 -190 0 0 35 0 35
-110 0 -110 0 0 40 0 40 -75 0 -75 0 0 35 c0 33 -2 35 -35 35 -33 0 -35 2 -35
35 0 33 -2 35 -35 35 l-35 0 0 115 0 115 35 0 c33 0 35 2 35 35 l0 35 110 0
110 0 0 -35z m1340 -300 l0 -35 145 0 145 0 0 -35 c0 -33 -2 -35 -35 -35 -34
0 -35 -1 -35 -40 0 -39 -1 -40 -35 -40 -33 0 -35 -2 -35 -35 l0 -35 -75 0 -75
0 0 -40 0 -40 -185 0 -185 0 0 40 c0 39 1 40 35 40 33 0 35 2 35 35 0 33 2 35
35 35 34 0 35 1 35 40 l0 40 40 0 c39 0 40 1 40 35 0 33 2 35 35 35 33 0 35 2
35 35 0 34 1 35 40 35 39 0 40 -1 40 -35z"/>
</g>
</svg>
